<svg version="1" xmlns="http://www.w3.org/2000/svg" width="682.667" height="682.667" viewBox="0 0 512.000000 512.000000"><path d="M75.3 54.9c-7.2 2.4-12.7 6.5-16.3 12-6.4 9.6-6-2.7-5.8 191.6l.3 177 2.8 5.7c3.4 7 10.1 13.1 17.3 15.8 5.4 2 7 2 182.4 2s177 0 182.4-2c7.2-2.7 13.9-8.8 17.3-15.8l2.8-5.7v-359l-2.5-5c-3.2-6.6-9-12.1-15.9-15.4l-5.6-2.6-177-.2c-168.3-.2-177.3-.2-182.2 1.6zm235.5 143.3l.3 13.8h-30.6c-16.8 0-30.5.3-30.5.7 0 .4 9.7 10.5 21.5 22.3l21.5 21.5-21.5 21.5c-11.8 11.8-21.5 21.8-21.5 22.2 0 .5 13.7.8 30.5.8h30.6l-.3 13.7-.3 13.8h-108l-.3-9-.3-9 10.3-9.4c20.9-19.1 33.4-30.8 40.6-37.6l7.3-7-7.3-7c-6.9-6.6-17.1-16-40.5-37.6l-10.3-9.4v-8.6c0-4.7.3-8.9.7-9.2.3-.4 24.8-.6 54.2-.5l53.6.3.3 13.7z"/></svg>